<?xml version="1.0" encoding="UTF-8"?>
<svg id="Layer_1" data-name="Layer 1" xmlns="http://www.w3.org/2000/svg" viewBox="0 0 674.18 110.74">
  <defs>
    <style>
      .cls-1 {
        fill: #fff;
      }

      .cls-2 {
        fill: #f9f9fa;
      }

      .cls-3 {
        isolation: isolate;
      }

      .cls-4 {
        fill: #b5aad3;
      }

      .cls-5 {
        fill: #00a79d;
      }

      .cls-6 {
        fill: #0eaa95;
      }

      .cls-7 {
        fill: #231f20;
      }
    </style>
  </defs>
  <g class="cls-3">
    <polygon class="cls-4" points="25.14 40.9 25.14 95.38 2.82 83.14 2.82 28.66 25.14 40.9"/>
  </g>
  <g class="cls-3">
    <polyline class="cls-4" points="29.22 98.02 50.58 110.74 50.58 83.14 29.22 71.01"/>
  </g>
  <g class="cls-3">
    <line class="cls-4" x1="24.7" y1="64.06" x2="52.62" y2="41.94"/>
    <rect class="cls-4" x="20.85" y="52.5" width="35.61" height="1" transform="translate(-24.55 35.46) rotate(-38.38)"/>
  </g>
  <g class="cls-3">
    <line class="cls-4" x1="34.43" y1="74.96" x2="49.5" y2="71.5"/>
    <rect class="cls-4" x="34.23" y="72.73" width="15.46" height="1" transform="translate(-15.37 11.29) rotate(-12.98)"/>
  </g>
  <g class="cls-3">
    <line class="cls-4" x1="24.27" y1="77.3" x2="29.96" y2="75.99"/>
    <rect class="cls-4" x="24.19" y="76.15" width="5.84" height="1" transform="translate(-16.45 8.01) rotate(-12.92)"/>
  </g>
  <g class="cls-3">
    <line class="cls-4" x1="23.02" y1="86.5" x2="27.22" y2="87.34"/>
    <rect class="cls-4" x="24.62" y="84.78" width="1" height="4.28" transform="translate(-65.04 94.5) rotate(-78.69)"/>
  </g>
  <g>
    <line class="cls-6" x1="23.22" y1="39.7" x2="24.06" y2="37.18"/>
    <rect class="cls-5" x="22.31" y="37.94" width="2.66" height="1" transform="translate(-20.31 48.69) rotate(-71.55)"/>
  </g>
  <g class="cls-3">
    <circle class="cls-4" cx="54.92" cy="40.28" r="3.18"/>
  </g>
  <g class="cls-3">
    <circle class="cls-4" cx="51.54" cy="70.42" r="2.28"/>
  </g>
  <circle class="cls-1" cx="67.32" cy="95.04" r="3.66"/>
  <circle class="cls-1" cx="24.27" cy="36.85" r="2.31"/>
  <g class="cls-3">
    <circle class="cls-4" cx="3.3" cy="15.08" r="3.3"/>
  </g>
  <g class="cls-3">
    <line class="cls-4" x1="3.31" y1="31.18" x2="3.29" y2="18.38"/>
    <rect class="cls-4" x="2.8" y="18.38" width="1" height="12.8" transform="translate(-.05 0) rotate(-.11)"/>
  </g>
  <polygon points="2.82 28.66 23.7 16.18 45.3 28.66 25.14 40.9 2.82 28.66"/>
  <g>
    <polygon points="27.54 13.54 51.06 .58 96.9 28.54 75.06 40.9 27.54 13.54"/>
    <path class="cls-7" d="m75.05,41.47L26.52,13.53,51.07,0l.25.15,46.57,28.4-22.83,12.92ZM28.55,13.55l46.5,26.77,20.85-11.8L51.04,1.16l-22.49,12.39Z"/>
  </g>
  <g>
    <polygon points="75.3 64.18 75.3 42.82 96.9 30.34 96.9 51.7 75.3 64.18"/>
    <path class="cls-7" d="m74.8,65.04v-22.52l22.6-13.06v22.52l-22.6,13.06Zm1-21.94v20.21l20.6-11.9v-20.21l-20.6,11.9Z"/>
  </g>
  <g>
    <polygon points="50.58 83.14 50.58 109.54 96.9 83.14 96.9 56.74 50.58 83.14"/>
    <path class="cls-7" d="m50.08,110.4v-27.55l.25-.14,47.07-26.83v27.55l-.25.14-47.07,26.83Zm1-26.97v25.25l45.32-25.83v-25.25l-45.32,25.83Z"/>
  </g>
  <g>
    <circle class="cls-1" cx="260.54" cy="36.06" r="7.4"/>
    <path class="cls-1" d="m260.54,43.96c-4.36,0-7.9-3.54-7.9-7.9s3.54-7.9,7.9-7.9,7.9,3.54,7.9,7.9-3.54,7.9-7.9,7.9Zm0-14.8c-3.8,0-6.9,3.1-6.9,6.9s3.1,6.9,6.9,6.9,6.9-3.1,6.9-6.9-3.1-6.9-6.9-6.9Z"/>
  </g>
  <rect class="cls-7" x="257.04" y="47.26" width="7" height="32.16"/>
  <rect class="cls-7" x="487.84" y="28.66" width="1" height="50.76"/>
  <g>
    <path class="cls-7" d="m119.19,29.65h6.72v43.05h16.21v6.72h-22.93V29.65Z"/>
    <path class="cls-7" d="m147.98,29.73h6.8v30.59c0,4.53,1.09,8.03,3.26,10.51,2.17,2.47,5.25,3.71,9.24,3.71s7.04-1.14,9.24-3.42c2.2-2.28,3.3-5.49,3.3-9.63v-31.76h6.8v31.29c0,6.09-1.74,10.96-5.21,14.61-3.48,3.65-8.11,5.47-13.89,5.47s-10.64-1.85-14.2-5.55c-3.55-3.7-5.33-9.15-5.33-16.37v-29.45Z"/>
    <path class="cls-7" d="m237.61,27.58l13.61,51.84h-6.66l-8.24-31.67-14.18,33.58-14.22-33.86-8.35,31.95h-6.62l13.61-51.84,15.58,37.09,15.47-37.09Z"/>
    <path class="cls-7" d="m256.3,36.6c0-1.41.52-2.62,1.56-3.65,1.04-1.03,2.28-1.54,3.71-1.54s2.62.51,3.65,1.54c1.03,1.03,1.54,2.25,1.54,3.65s-.51,2.66-1.54,3.67c-1.03,1.02-2.25,1.52-3.65,1.52s-2.67-.51-3.71-1.52c-1.04-1.02-1.56-2.24-1.56-3.67Zm1.91,10.59h6.72v32.23h-6.72v-32.23Z"/>
    <path class="cls-7" d="m275.36,27.66l36.8,37.82V29.65h6.8v52.07l-36.8-37.66v35.35h-6.8V27.66Z"/>
    <path class="cls-7" d="m327.04,54.24c0-7.18,2.71-13.34,8.12-18.46,5.42-5.13,11.93-7.69,19.53-7.69s13.81,2.58,19.18,7.75c5.36,5.17,8.05,11.3,8.05,18.4,0,7.52-2.65,13.88-7.95,19.07-5.3,5.19-11.8,7.79-19.51,7.79s-14.08-2.62-19.41-7.85c-5.34-5.23-8.01-11.57-8.01-19.01Zm47.66.31c0-5.49-1.98-10.11-5.94-13.87-3.96-3.76-8.83-5.64-14.61-5.64s-10.2,1.91-14.12,5.74c-3.92,3.82-5.88,8.42-5.88,13.77s2.01,10.04,6.04,13.79,8.95,5.64,14.79,5.64c5.36,0,9.99-1.92,13.89-5.76,3.89-3.84,5.84-8.4,5.84-13.68Z"/>
    <path class="cls-7" d="m390.55,29.73h6.8v30.59c0,4.53,1.09,8.03,3.26,10.51,2.17,2.47,5.25,3.71,9.24,3.71s7.04-1.14,9.24-3.42c2.2-2.28,3.3-5.49,3.3-9.63v-31.76h6.8v31.29c0,6.09-1.74,10.96-5.21,14.61-3.48,3.65-8.11,5.47-13.89,5.47s-10.64-1.85-14.2-5.55c-3.55-3.7-5.33-9.15-5.33-16.37v-29.45Z"/>
    <path class="cls-7" d="m469.5,35.2l-5.51,4.41c-1.46-1.51-2.77-2.64-3.96-3.38-1.18-.74-2.89-1.11-5.12-1.11-2.44,0-4.42.55-5.94,1.66-1.52,1.1-2.28,2.52-2.28,4.26,0,1.51.66,2.84,1.99,3.99,1.33,1.16,3.59,2.42,6.79,3.79,3.2,1.37,5.69,2.65,7.47,3.84,1.78,1.18,3.24,2.49,4.39,3.92,1.14,1.43,2,2.94,2.55,4.53.56,1.59.84,3.27.84,5.04,0,4.14-1.5,7.66-4.51,10.58-3.01,2.91-6.65,4.37-10.92,4.37s-7.85-1.14-11.04-3.42c-3.19-2.28-5.64-5.7-7.36-10.25l6.8-1.91c2.47,5.6,6.26,8.4,11.37,8.4,2.47,0,4.53-.74,6.17-2.22s2.46-3.35,2.46-5.61c0-1.35-.43-2.71-1.29-4.07-.86-1.36-1.93-2.49-3.21-3.37-1.28-.88-3.31-1.9-6.1-3.04-2.79-1.14-4.93-2.19-6.43-3.14-1.5-.95-2.8-2.08-3.9-3.4-1.1-1.31-1.9-2.62-2.41-3.92-.51-1.3-.76-2.69-.76-4.18,0-3.56,1.43-6.6,4.3-9.11,2.86-2.51,6.34-3.77,10.43-3.77,2.71,0,5.46.59,8.24,1.76,2.79,1.17,5.1,2.96,6.95,5.35Z"/>
  </g>
  <g>
    <path class="cls-7" d="m517.07,42.44c.59.5.89,1.23.89,2.16v.9c0,1.11-.49,1.98-1.46,2.64s-2.31.98-4,.98h-3.91v-14.7h4.05c1.48,0,2.66.3,3.54.91.87.61,1.31,1.47,1.31,2.59v.92c0,.76-.24,1.37-.72,1.85-.48.48-1.08.76-1.77.86h.02c.77.08,1.45.38,2.05.88Zm-6.88-6.78v5.42h3.11c.8,0,1.43-.2,1.91-.6.48-.4.71-.95.71-1.65v-.82c0-.77-.29-1.35-.87-1.75-.58-.4-1.37-.6-2.36-.6h-2.5Zm6.2,8.95c0-.71-.28-1.27-.83-1.68-.55-.41-1.28-.61-2.17-.61h-3.19v5.57h2.35c1.25,0,2.2-.21,2.86-.62s.99-1.02.99-1.82v-.84Z"/>
    <path class="cls-7" d="m522.83,47.08c0,.36.07.62.21.78.14.15.36.23.67.23.22,0,.44-.03.65-.08l.21,1.11c-.41.17-.83.25-1.26.25-.63,0-1.13-.18-1.49-.54-.36-.36-.55-.86-.55-1.52v-13.73h1.55v13.5Z"/>
    <path class="cls-7" d="m535.56,38.05v11.07h-1.32l-.13-1.58c-.97,1.22-2.18,1.83-3.65,1.83-1.01,0-1.84-.3-2.5-.91-.66-.61-.99-1.42-.99-2.43v-7.98h1.55v7.92c0,.69.2,1.22.59,1.6.39.38.94.57,1.64.57.64,0,1.25-.18,1.82-.53.57-.35,1.05-.83,1.44-1.45v-8.11h1.55Z"/>
    <path class="cls-7" d="m540.2,44.06v.04c0,1.29.32,2.28.95,2.98.63.7,1.51,1.05,2.65,1.05.59,0,1.11-.09,1.58-.26.46-.17.95-.43,1.45-.77l.61,1.01c-.48.36-1.04.67-1.68.9s-1.32.36-2.04.36c-1.02,0-1.91-.23-2.68-.68-.76-.45-1.34-1.08-1.74-1.88-.4-.8-.6-1.7-.6-2.71v-1.09c0-.97.19-1.84.58-2.64.38-.79.93-1.42,1.64-1.88s1.54-.69,2.49-.69c1.41,0,2.52.47,3.32,1.4s1.2,2.22,1.2,3.87c0,.41-.02.73-.06.99h-7.64Zm.86-3.98c-.56.69-.85,1.64-.86,2.85h6.3v-.15c0-1.16-.27-2.08-.81-2.74-.54-.66-1.31-1-2.3-1s-1.77.35-2.33,1.04Z"/>
    <path class="cls-7" d="m564.11,38.05l-2.52,11.07h-2.06l-2.54-9.7-2.6,9.7h-2.02l-2.54-11.07h1.55l2.08,9.72,2.6-9.72h1.89l2.6,9.72,2-9.72h1.55Z"/>
    <path class="cls-7" d="m573.59,38.79c.66.66.99,1.57.99,2.73v7.6h-1.28l-.11-1.28c-.94,1.02-2.15,1.53-3.63,1.53-.64,0-1.24-.13-1.77-.38s-.97-.61-1.3-1.08c-.33-.47-.49-1.01-.49-1.63v-.69c0-.97.4-1.74,1.21-2.32.8-.58,1.89-.87,3.27-.87h2.56v-.92c0-.81-.2-1.42-.61-1.82s-1.03-.6-1.87-.6c-.62,0-1.18.07-1.69.22-.51.15-1.06.37-1.65.66l-.5-1.05c1.23-.73,2.55-1.09,3.95-1.09,1.3,0,2.28.33,2.94.99Zm-.57,7.79v-3.07h-2.46c-.97,0-1.71.19-2.24.57s-.79.92-.79,1.64v.46c0,.6.21,1.08.62,1.44s.96.54,1.65.54c1.37,0,2.44-.53,3.21-1.58Z"/>
    <path class="cls-7" d="m583.37,49.12c-.59.17-1.16.25-1.7.25-.92,0-1.63-.22-2.12-.65-.49-.43-.73-1.08-.73-1.93v-7.52h-1.76v-1.22h1.79l.15-2.62h1.39v2.62h2.67v1.22h-2.67v7.46c0,.46.13.81.4,1.05.27.24.66.36,1.18.36.38,0,.79-.06,1.24-.17l.19,1.15Z"/>
    <path class="cls-7" d="m586.52,44.06v.04c0,1.29.32,2.28.95,2.98.63.7,1.51,1.05,2.65,1.05.59,0,1.11-.09,1.58-.26.46-.17.95-.43,1.45-.77l.61,1.01c-.48.36-1.04.67-1.68.9s-1.32.36-2.04.36c-1.02,0-1.91-.23-2.68-.68-.76-.45-1.34-1.08-1.74-1.88-.4-.8-.6-1.7-.6-2.71v-1.09c0-.97.19-1.84.58-2.64.38-.79.93-1.42,1.64-1.88s1.54-.69,2.49-.69c1.41,0,2.52.47,3.32,1.4s1.2,2.22,1.2,3.87c0,.41-.02.73-.06.99h-7.64Zm.86-3.98c-.56.69-.85,1.64-.86,2.85h6.3v-.15c0-1.16-.27-2.08-.81-2.74-.54-.66-1.31-1-2.3-1s-1.77.35-2.33,1.04Z"/>
    <path class="cls-7" d="m602.92,38.05l-.27,1.47c-.18-.06-.43-.08-.76-.08-1.55,0-2.6.9-3.13,2.71v6.97h-1.55v-11.07h1.18l.25,2.02c.31-.76.74-1.31,1.28-1.67.55-.36,1.14-.54,1.79-.54.41,0,.81.06,1.22.19Z"/>
    <path class="cls-7" d="m604.42,47.94l.8-1.01c.48.39.98.69,1.52.89.54.2,1.14.3,1.82.3.85,0,1.52-.15,1.98-.45.47-.3.7-.74.7-1.31v-.17c0-.5-.15-.89-.45-1.17s-.86-.55-1.69-.83l-1.47-.52c-.94-.32-1.62-.69-2.06-1.11-.43-.42-.65-.97-.65-1.64v-.36c0-.53.16-1.01.49-1.43s.79-.75,1.38-.99c.59-.24,1.25-.36,1.97-.36s1.47.12,2.14.35c.67.23,1.27.56,1.79,1l-.78.92c-.53-.36-1.04-.62-1.52-.78-.48-.15-1.02-.23-1.61-.23-.71,0-1.28.13-1.69.4-.41.27-.62.63-.62,1.09v.17c0,.42.15.76.46,1.03.31.27.86.54,1.66.82l1.47.52c.92.32,1.61.7,2.06,1.12.45.43.67,1.03.67,1.82v.36c0,.92-.39,1.65-1.17,2.18-.78.53-1.76.8-2.95.8-1.65,0-3.07-.48-4.26-1.43Z"/>
    <path class="cls-7" d="m509.14,73.08c-.95-.99-1.43-2.32-1.43-3.99v-3.88c0-1.18.22-2.2.66-3.08.44-.88,1.08-1.55,1.91-2.04s1.82-.72,2.97-.72c.91,0,1.69.14,2.34.41.65.27,1.26.66,1.84,1.17l-.84.94c-.48-.39-.97-.7-1.48-.91-.51-.22-1.12-.33-1.82-.33-1.27,0-2.26.4-2.96,1.2-.7.8-1.05,1.9-1.05,3.32v3.88c0,1.34.33,2.39,1,3.13s1.63,1.11,2.89,1.11c.71,0,1.34-.11,1.89-.32s1.06-.5,1.53-.86l.69,1.01c-.52.42-1.12.77-1.82,1.04-.69.27-1.47.41-2.32.41-1.72,0-3.06-.5-4.01-1.49Z"/>
    <path class="cls-7" d="m526.93,63.67c.74.45,1.31,1.06,1.69,1.85s.58,1.68.58,2.69v1.09c0,1.02-.19,1.93-.58,2.73s-.95,1.42-1.69,1.87c-.74.45-1.64.67-2.69.67-1.57,0-2.78-.48-3.63-1.45-.85-.97-1.28-2.24-1.28-3.82v-1.09c0-1.01.19-1.9.57-2.69s.93-1.4,1.67-1.85c.74-.45,1.63-.67,2.68-.67s1.95.22,2.69.67Zm-5.19,1.63c-.57.69-.86,1.66-.86,2.89v1.09c0,1.27.29,2.27.86,2.98.57.71,1.41,1.07,2.5,1.07s1.91-.36,2.51-1.07c.6-.71.89-1.71.89-2.98v-1.09c0-1.22-.3-2.18-.89-2.88-.59-.7-1.43-1.05-2.51-1.05s-1.93.35-2.5,1.04Z"/>
    <path class="cls-7" d="m539.94,63.96c.65.64.98,1.55.98,2.73v7.62h-1.55v-7.5c0-.87-.2-1.51-.61-1.93-.41-.42-.98-.63-1.72-.63-1.29,0-2.34.65-3.17,1.95v8.11h-1.55v-11.07h1.32l.13,1.49c.87-1.16,2.07-1.74,3.61-1.74,1.06,0,1.92.32,2.57.97Z"/>
    <path class="cls-7" d="m543.56,73.14l.8-1.01c.48.39.98.69,1.52.89s1.14.3,1.82.3c.85,0,1.52-.15,1.98-.45.47-.3.7-.74.7-1.31v-.17c0-.5-.15-.89-.45-1.17-.3-.27-.86-.55-1.69-.83l-1.47-.52c-.94-.32-1.62-.69-2.06-1.11-.43-.42-.65-.97-.65-1.64v-.36c0-.53.16-1.01.49-1.43s.79-.75,1.38-.99c.59-.24,1.25-.36,1.97-.36s1.47.12,2.14.35c.67.23,1.27.56,1.79,1l-.78.92c-.53-.36-1.04-.62-1.52-.78-.48-.15-1.02-.23-1.61-.23-.71,0-1.28.13-1.69.4-.41.27-.62.63-.62,1.09v.17c0,.42.15.76.46,1.03.31.27.86.54,1.66.82l1.47.53c.92.32,1.61.7,2.06,1.12.45.43.67,1.03.67,1.82v.36c0,.92-.39,1.65-1.17,2.18-.78.53-1.76.8-2.95.8-1.65,0-3.07-.48-4.26-1.43Z"/>
    <path class="cls-7" d="m563.37,63.25v11.07h-1.32l-.13-1.58c-.97,1.22-2.18,1.83-3.65,1.83-1.01,0-1.84-.3-2.5-.91-.66-.61-.99-1.42-.99-2.43v-7.98h1.55v7.92c0,.69.2,1.22.59,1.6s.94.57,1.64.57c.64,0,1.25-.18,1.82-.53.57-.35,1.05-.83,1.44-1.45v-8.11h1.55Z"/>
    <path class="cls-7" d="m568.56,72.28c0,.36.07.62.21.78s.36.23.67.23c.22,0,.44-.03.65-.08l.21,1.11c-.41.17-.83.25-1.26.25-.63,0-1.13-.18-1.49-.54s-.55-.86-.55-1.52v-13.73h1.55v13.5Z"/>
    <path class="cls-7" d="m577.94,74.32c-.59.17-1.16.25-1.7.25-.92,0-1.63-.22-2.12-.65-.49-.43-.73-1.08-.73-1.93v-7.52h-1.76v-1.22h1.79l.15-2.62h1.39v2.62h2.67v1.22h-2.67v7.46c0,.46.13.81.4,1.05.27.24.66.36,1.18.36.38,0,.79-.06,1.24-.17l.19,1.15Z"/>
    <path class="cls-7" d="m587.53,63.98c.66.66.99,1.57.99,2.73v7.6h-1.28l-.11-1.28c-.94,1.02-2.15,1.53-3.63,1.53-.64,0-1.24-.13-1.77-.38s-.97-.61-1.3-1.08c-.33-.47-.49-1.01-.49-1.63v-.69c0-.97.4-1.74,1.21-2.32.8-.58,1.89-.87,3.27-.87h2.56v-.92c0-.81-.2-1.42-.61-1.82s-1.03-.6-1.87-.6c-.62,0-1.18.07-1.69.22-.51.15-1.06.37-1.65.66l-.5-1.05c1.23-.73,2.55-1.09,3.95-1.09,1.3,0,2.28.33,2.94.99Zm-.57,7.79v-3.07h-2.46c-.97,0-1.71.19-2.24.57s-.79.92-.79,1.64v.46c0,.6.21,1.08.62,1.44.41.36.96.54,1.65.54,1.37,0,2.44-.53,3.21-1.58Z"/>
    <path class="cls-7" d="m599.78,63.96c.65.64.98,1.55.98,2.73v7.62h-1.55v-7.5c0-.87-.2-1.51-.61-1.93-.41-.42-.98-.63-1.72-.63-1.29,0-2.34.65-3.17,1.95v8.11h-1.55v-11.07h1.32l.13,1.49c.87-1.16,2.07-1.74,3.61-1.74,1.06,0,1.92.32,2.57.97Z"/>
    <path class="cls-7" d="m604.98,73.1c-.83-.98-1.24-2.27-1.24-3.86v-.92c0-1.58.41-2.86,1.23-3.84.82-.98,1.98-1.47,3.5-1.47.7,0,1.33.12,1.89.35.56.23,1.08.58,1.57,1.04l-.8.88c-.38-.34-.78-.59-1.2-.76-.42-.17-.9-.25-1.43-.25-1.02,0-1.81.36-2.37,1.07-.56.71-.84,1.69-.84,2.94v.99c0,1.27.27,2.27.82,2.98s1.33,1.07,2.35,1.07c.52,0,.98-.08,1.4-.25s.83-.41,1.25-.71l.71,1.01c-.46.36-.98.66-1.56.88-.58.22-1.19.34-1.82.34-1.48,0-2.64-.49-3.47-1.47Z"/>
    <path class="cls-7" d="m615.25,78.71c-.23-.04-.42-.1-.56-.17l.23-1.07c.36.08.71.13,1.05.13.5,0,.91-.14,1.22-.41.31-.27.58-.77.82-1.5l.44-1.37h-.71l-3.84-11.07h1.64l3.3,9.91,3.04-9.91h1.55l-4.05,12.54c-.38,1.15-.84,1.93-1.38,2.35-.54.42-1.22.63-2.05.63-.24,0-.47-.02-.7-.06Z"/>
    <path class="cls-7" d="m640.42,72.97v1.34h-7.94v-14.7h1.58v13.36h6.36Z"/>
    <path class="cls-7" d="m643.28,74.18c-.21-.2-.32-.46-.32-.77s.11-.57.33-.78c.22-.21.47-.32.77-.32s.56.11.77.32.3.47.3.78-.1.56-.3.77c-.2.2-.46.3-.77.3s-.57-.1-.78-.3Z"/>
    <path class="cls-7" d="m656.92,72.97v1.34h-7.94v-14.7h1.58v13.36h6.36Z"/>
    <path class="cls-7" d="m659.77,74.18c-.21-.2-.32-.46-.32-.77s.11-.57.33-.78c.22-.21.47-.32.77-.32s.56.11.77.32.3.47.3.78-.1.56-.3.77c-.2.2-.46.3-.77.3s-.57-.1-.78-.3Z"/>
    <path class="cls-7" d="m665.88,73.08c-.95-.99-1.43-2.32-1.43-3.99v-3.88c0-1.18.22-2.2.66-3.08.44-.88,1.08-1.55,1.91-2.04s1.82-.72,2.97-.72c.91,0,1.69.14,2.34.41.65.27,1.26.66,1.84,1.17l-.84.94c-.48-.39-.97-.7-1.48-.91-.51-.22-1.12-.33-1.82-.33-1.27,0-2.26.4-2.96,1.2-.7.8-1.05,1.9-1.05,3.32v3.88c0,1.34.33,2.39,1,3.13s1.63,1.11,2.89,1.11c.71,0,1.34-.11,1.89-.32s1.06-.5,1.53-.86l.69,1.01c-.52.42-1.12.77-1.82,1.04-.69.27-1.47.41-2.32.41-1.72,0-3.06-.5-4.01-1.49Z"/>
  </g>
  <rect class="cls-1" x="247.98" y="20.74" width="23.04" height="25.08"/>
  <rect class="cls-2" x="-10.55" y="59.35" width="48.14" height="1" transform="translate(-46.33 46.35) rotate(-64.56)"/>
  <rect class="cls-2" x="2.95" y="78.85" width="22.41" height="1" transform="translate(-15.52 4.41) rotate(-11.49)"/>
  <rect class="cls-2" x="29.13" y="74.93" width="6.52" height="1" transform="translate(-16.11 9.2) rotate(-12.98)"/>
  <rect class="cls-2" x="14.05" y="73.86" width="1" height="21.31" transform="translate(-71.2 83.11) rotate(-79.29)"/>
  <rect class="cls-2" x="45.94" y="73.54" width="1" height="35.29" transform="translate(-52.69 116.61) rotate(-77.4)"/>
  <g>
    <line class="cls-1" x1="3.18" y1="81.58" x2="24.7" y2="64.06"/>
    <rect class="cls-1" x=".06" y="72.32" width="27.75" height="1" transform="translate(-42.83 25.13) rotate(-39.13)"/>
  </g>
  <g>
    <circle class="cls-1" cx="24.62" cy="35.74" r="2.36"/>
    <path class="cls-2" d="m24.62,38.6c-1.58,0-2.86-1.28-2.86-2.86s1.28-2.86,2.86-2.86,2.86,1.28,2.86,2.86-1.28,2.86-2.86,2.86Zm0-4.72c-1.03,0-1.86.83-1.86,1.86s.83,1.86,1.86,1.86,1.86-.83,1.86-1.86-.83-1.86-1.86-1.86Z"/>
  </g>
  <g>
    <circle class="cls-1" cx="64.68" cy="95.36" r="3.17"/>
    <path class="cls-2" d="m64.68,99.04c-2.03,0-3.67-1.65-3.67-3.67s1.65-3.67,3.67-3.67,3.68,1.65,3.68,3.67-1.65,3.67-3.68,3.67Zm0-6.35c-1.48,0-2.67,1.2-2.67,2.67s1.2,2.67,2.67,2.67,2.68-1.2,2.68-2.67-1.2-2.67-2.68-2.67Z"/>
  </g>
  <g class="cls-3">
    <polygon class="cls-4" points="253.14 30.43 253.14 38.89 256.53 40.96 256.53 32.32 259.23 30.43 256.18 28.36 253.14 30.43"/>
  </g>
  <g class="cls-3">
    <polygon class="cls-4" points="257.61 27.58 260.54 25.78 268.1 30.43 268.1 34.03 264.54 36.06 264.54 31.78 257.61 27.58"/>
  </g>
  <g class="cls-3">
    <polyline class="cls-4" points="257.61 37.18 257.61 41.5 260.54 43.46 267.94 39.07 267.94 34.66 261.57 38.44"/>
  </g>
</svg>