<?xml version="1.0" encoding="UTF-8"?>
<svg xmlns="http://www.w3.org/2000/svg" viewBox="0 0 841.89 595.28">
  <defs>
    <style>
      .cls-1 {
        fill: #fff;
      }

      .cls-2 {
        isolation: isolate;
      }

      .cls-3 {
        fill: #0ba995;
      }

      .cls-4 {
        fill: #00a69c;
      }

      .cls-5 {
        fill: #f9f9f9;
      }

      .cls-6 {
        fill: #b69ff2;
      }

      .cls-7 {
        fill: #231f20;
      }
    </style>
  </defs>
  <g id="Layer_5" data-name="Layer 5">
    <g class="cls-2">
      <polygon class="cls-6" points="147.12 264.36 147.12 318.84 124.8 306.6 124.8 252.12 147.12 264.36"/>
    </g>
    <g class="cls-2">
      <polyline class="cls-6" points="151.2 321.48 172.56 334.2 172.56 306.6 151.2 294.47"/>
    </g>
  </g>
  <g id="Layer_6" data-name="Layer 6">
    <g class="cls-2">
      <line class="cls-6" x1="146.69" y1="287.52" x2="174.6" y2="265.4"/>
      <rect class="cls-6" x="142.84" y="275.96" width="35.61" height="1" transform="translate(-136.94 159.48) rotate(-38.38)"/>
    </g>
    <g class="cls-2">
      <line class="cls-6" x1="156.41" y1="298.43" x2="171.48" y2="294.96"/>
      <rect class="cls-6" x="156.22" y="296.19" width="15.46" height="1" transform="translate(-62.44 44.4) rotate(-12.98)"/>
    </g>
    <g class="cls-2">
      <line class="cls-6" x1="146.25" y1="300.76" x2="151.94" y2="299.45"/>
      <rect class="cls-6" x="146.18" y="299.61" width="5.84" height="1" transform="translate(-63.34 40.95) rotate(-12.92)"/>
    </g>
    <g class="cls-2">
      <line class="cls-6" x1="147" y1="309.96" x2="151.2" y2="310.8"/>
      <rect class="cls-6" x="148.6" y="308.24" width="1" height="4.28" transform="translate(-184.49 395.73) rotate(-78.69)"/>
    </g>
    <g>
      <line class="cls-3" x1="145.2" y1="263.16" x2="146.04" y2="260.64"/>
      <rect class="cls-4" x="144.29" y="261.4" width="2.66" height="1" transform="translate(-148.91 317.14) rotate(-71.55)"/>
    </g>
    <g class="cls-2">
      <circle class="cls-6" cx="176.9" cy="263.74" r="3.18"/>
    </g>
    <g class="cls-2">
      <circle class="cls-6" cx="173.52" cy="293.88" r="2.28"/>
    </g>
    <circle class="cls-1" cx="189.3" cy="318.5" r="3.66"/>
    <circle class="cls-1" cx="146.25" cy="260.31" r="2.31"/>
    <g class="cls-2">
      <circle class="cls-6" cx="125.28" cy="238.54" r="3.3"/>
    </g>
    <g class="cls-2">
      <line class="cls-6" x1="125.3" y1="254.64" x2="125.27" y2="241.84"/>
      <rect class="cls-6" x="124.79" y="241.84" width="1" height="12.8" transform="translate(-.48 .24) rotate(-.11)"/>
    </g>
  </g>
  <g id="Layer_4" data-name="Layer 4">
    <polygon points="124.8 252.12 145.68 239.64 167.28 252.12 147.12 264.36 124.8 252.12"/>
    <g>
      <polygon points="149.52 237 173.04 224.04 218.88 252 197.04 264.36 149.52 237"/>
      <path class="cls-7" d="m197.04,264.94l-48.54-27.95,24.55-13.53.25.15,46.57,28.4-22.83,12.92Zm-46.5-27.93l46.5,26.77,20.85-11.8-44.87-27.37-22.49,12.39Z"/>
    </g>
    <g>
      <polygon points="197.28 287.64 197.28 266.28 218.88 253.8 218.88 275.16 197.28 287.64"/>
      <path class="cls-7" d="m196.78,288.51v-22.52l22.6-13.06v22.52l-22.6,13.06Zm1-21.94v20.21l20.6-11.9v-20.21l-20.6,11.9Z"/>
    </g>
    <g>
      <polygon points="172.56 306.6 172.56 333 218.88 306.6 218.88 280.2 172.56 306.6"/>
      <path class="cls-7" d="m172.06,333.86v-27.55l.25-.14,47.07-26.83v27.55l-.25.14-47.07,26.83Zm1-26.97v25.25l45.32-25.83v-25.25l-45.32,25.83Z"/>
    </g>
  </g>
  <g id="Layer_8" data-name="Layer 8">
    <g>
      <circle class="cls-1" cx="382.52" cy="259.52" r="7.4"/>
      <path class="cls-1" d="m382.52,267.42c-4.36,0-7.9-3.54-7.9-7.9s3.54-7.9,7.9-7.9,7.9,3.54,7.9,7.9-3.54,7.9-7.9,7.9Zm0-14.8c-3.8,0-6.9,3.1-6.9,6.9s3.1,6.9,6.9,6.9,6.9-3.1,6.9-6.9-3.1-6.9-6.9-6.9Z"/>
    </g>
  </g>
  <g id="Layer_9" data-name="Layer 9">
    <rect class="cls-7" x="379.02" y="270.72" width="7" height="32.16"/>
  </g>
  <g id="Layer_10" data-name="Layer 10">
    <rect class="cls-7" x="609.82" y="252.12" width="1" height="50.76"/>
  </g>
  <g id="Layer_1" data-name="Layer 1">
    <g>
      <path class="cls-7" d="m241.17,253.11h6.72v43.05h16.21v6.72h-22.93v-49.77Z"/>
      <path class="cls-7" d="m269.96,253.19h6.8v30.59c0,4.53,1.09,8.03,3.26,10.51,2.17,2.47,5.25,3.71,9.24,3.71s7.04-1.14,9.24-3.42c2.2-2.28,3.3-5.49,3.3-9.63v-31.76h6.8v31.29c0,6.09-1.74,10.96-5.21,14.61-3.48,3.65-8.11,5.47-13.89,5.47s-10.64-1.85-14.2-5.55c-3.55-3.7-5.33-9.15-5.33-16.37v-29.45Z"/>
      <path class="cls-7" d="m359.59,251.04l13.61,51.84h-6.66l-8.24-31.67-14.18,33.58-14.22-33.86-8.35,31.95h-6.62l13.61-51.84,15.58,37.09,15.47-37.09Z"/>
      <path class="cls-7" d="m378.28,260.07c0-1.41.52-2.62,1.56-3.65,1.04-1.03,2.28-1.54,3.71-1.54s2.62.51,3.65,1.54c1.03,1.03,1.54,2.25,1.54,3.65s-.51,2.66-1.54,3.67c-1.03,1.02-2.25,1.52-3.65,1.52s-2.67-.51-3.71-1.52c-1.04-1.02-1.56-2.24-1.56-3.67Zm1.91,10.59h6.72v32.23h-6.72v-32.23Z"/>
      <path class="cls-7" d="m397.34,251.12l36.8,37.82v-35.83h6.8v52.07l-36.8-37.66v35.35h-6.8v-51.76Z"/>
      <path class="cls-7" d="m449.02,277.7c0-7.18,2.71-13.34,8.12-18.46,5.42-5.13,11.93-7.69,19.53-7.69s13.81,2.58,19.18,7.75c5.36,5.17,8.05,11.3,8.05,18.4,0,7.52-2.65,13.88-7.95,19.07-5.3,5.19-11.8,7.79-19.51,7.79s-14.08-2.62-19.41-7.85c-5.34-5.23-8.01-11.57-8.01-19.01Zm47.66.31c0-5.49-1.98-10.11-5.94-13.87-3.96-3.76-8.83-5.64-14.61-5.64s-10.2,1.91-14.12,5.74c-3.92,3.82-5.88,8.42-5.88,13.77s2.01,10.04,6.04,13.79c4.02,3.76,8.95,5.64,14.79,5.64,5.36,0,9.99-1.92,13.89-5.76,3.89-3.84,5.84-8.4,5.84-13.68Z"/>
      <path class="cls-7" d="m512.54,253.19h6.8v30.59c0,4.53,1.09,8.03,3.26,10.51,2.17,2.47,5.25,3.71,9.24,3.71s7.04-1.14,9.24-3.42c2.2-2.28,3.3-5.49,3.3-9.63v-31.76h6.8v31.29c0,6.09-1.74,10.96-5.21,14.61-3.48,3.65-8.11,5.47-13.89,5.47s-10.64-1.85-14.2-5.55c-3.55-3.7-5.33-9.15-5.33-16.37v-29.45Z"/>
      <path class="cls-7" d="m591.48,258.66l-5.51,4.41c-1.46-1.51-2.77-2.64-3.96-3.38-1.18-.74-2.89-1.11-5.12-1.11-2.44,0-4.42.55-5.94,1.66-1.52,1.1-2.28,2.52-2.28,4.26,0,1.51.66,2.84,1.99,3.99,1.33,1.16,3.59,2.42,6.79,3.79,3.2,1.37,5.69,2.65,7.47,3.84,1.78,1.18,3.24,2.49,4.39,3.92,1.14,1.43,2,2.94,2.55,4.53.56,1.59.84,3.27.84,5.04,0,4.14-1.5,7.66-4.51,10.58-3.01,2.91-6.65,4.37-10.92,4.37s-7.85-1.14-11.04-3.42c-3.19-2.28-5.64-5.7-7.36-10.25l6.8-1.91c2.47,5.6,6.26,8.4,11.37,8.4,2.47,0,4.53-.74,6.17-2.22,1.64-1.48,2.46-3.35,2.46-5.61,0-1.35-.43-2.71-1.29-4.07-.86-1.36-1.93-2.49-3.21-3.37-1.28-.88-3.31-1.9-6.1-3.04-2.79-1.14-4.93-2.19-6.43-3.14-1.5-.95-2.8-2.08-3.9-3.4-1.1-1.31-1.9-2.62-2.41-3.92-.51-1.3-.76-2.69-.76-4.18,0-3.56,1.43-6.6,4.3-9.11,2.86-2.51,6.34-3.77,10.43-3.77,2.71,0,5.46.59,8.24,1.76,2.79,1.17,5.1,2.96,6.95,5.35Z"/>
    </g>
    <g>
      <path class="cls-7" d="m639.61,265.88c.53.48.8,1.16.8,2.06v.84c0,.74-.23,1.4-.7,1.97-.47.57-1.13,1.02-1.98,1.34-.85.32-1.85.48-3,.48h-4.51v-14.7h4.54c1.6,0,2.86.32,3.8.97.94.64,1.41,1.54,1.41,2.69v.92c0,.7-.21,1.25-.63,1.66-.42.41-.93.69-1.53.84.69.14,1.29.45,1.83.92Zm-6.76-6.07v4.43h2.31c.66,0,1.18-.15,1.55-.45.38-.3.57-.75.57-1.33v-.78c0-.63-.22-1.1-.66-1.41-.44-.31-1.06-.46-1.86-.46h-1.91Zm4.91,8.08c0-.56-.21-1-.64-1.31-.43-.31-1.04-.47-1.84-.47h-2.44v4.54h1.91c.95,0,1.69-.17,2.22-.5s.79-.83.79-1.49v-.76Z"/>
      <path class="cls-7" d="m645.66,269.97c0,.31.06.53.17.66.11.13.31.2.59.2.07,0,.22-.01.44-.04l.27,1.79c-.52.18-1.02.27-1.49.27-.8,0-1.43-.21-1.89-.64-.46-.43-.69-1.05-.69-1.86v-13.31h2.6v12.94Z"/>
      <path class="cls-7" d="m658.34,261.41v11.17h-2.21l-.19-1.24c-.92,1.01-2.04,1.51-3.36,1.51-.66,0-1.26-.14-1.79-.42s-.97-.68-1.28-1.19c-.31-.51-.47-1.11-.47-1.8v-8.04h2.6v7.92c0,.5.13.89.4,1.17.27.27.66.41,1.18.41.46,0,.92-.13,1.36-.38s.83-.6,1.16-1.05v-8.06h2.6Z"/>
      <path class="cls-7" d="m670.58,267.81h-7.2c.01,1.06.27,1.84.76,2.34.49.5,1.22.75,2.21.75.55,0,1.05-.08,1.5-.24s.95-.39,1.48-.68l.92,1.55c-.5.38-1.12.69-1.84.94-.72.25-1.47.38-2.24.38-1.11,0-2.06-.23-2.87-.68-.8-.45-1.42-1.08-1.84-1.87s-.63-1.7-.63-2.72v-1.15c0-1.01.2-1.91.61-2.72.41-.8.99-1.44,1.74-1.9s1.64-.69,2.65-.69c1.54,0,2.73.47,3.57,1.4s1.26,2.28,1.26,4.04c0,.39-.03.81-.08,1.26Zm-2.25-1.81c0-.97-.21-1.7-.63-2.22-.42-.51-1.04-.77-1.85-.77s-1.4.26-1.82.78-.63,1.29-.66,2.31h4.96v-.11Z"/>
      <path class="cls-7" d="m687.31,261.41l-2.48,11.17h-3.21l-1.95-8.9-2,8.9h-3.15l-2.52-11.17h2.6l1.66,8.99,2-8.99h2.9l2.02,8.99,1.58-8.99h2.56Z"/>
      <path class="cls-7" d="m696.84,262.15c.73.69,1.09,1.66,1.09,2.89v7.54h-2.04l-.21-1.07c-.91.9-2.02,1.34-3.32,1.34-.67,0-1.29-.13-1.86-.39-.57-.26-1.02-.63-1.35-1.11s-.5-1.04-.5-1.67v-.73c0-.98.41-1.76,1.24-2.35.83-.59,1.96-.88,3.4-.88h2.06v-.76c0-.66-.17-1.14-.49-1.44-.33-.3-.83-.45-1.5-.45-.59,0-1.14.07-1.65.21-.51.14-1.05.35-1.61.63l-.8-1.62c1.29-.78,2.72-1.18,4.28-1.18,1.44,0,2.53.35,3.25,1.04Zm-2.62,8.49c.43-.18.8-.45,1.12-.82v-2.48h-1.81c-1.54,0-2.31.57-2.31,1.7v.42c0,.45.14.8.41,1.06.27.26.68.39,1.23.39.48,0,.93-.09,1.35-.27Z"/>
      <path class="cls-7" d="m706.93,272.58c-.63.18-1.28.27-1.95.27-1.09,0-1.93-.25-2.51-.75-.58-.5-.87-1.26-.87-2.3v-6.47h-1.7v-1.93h1.76l.21-2.75h2.33v2.75h2.42v1.93h-2.42v6.32c0,.41.11.71.34.9.22.2.57.29,1.03.29.35,0,.71-.03,1.09-.1l.27,1.83Z"/>
      <path class="cls-7" d="m718.01,267.81h-7.2c.01,1.06.27,1.84.76,2.34.49.5,1.22.75,2.21.75.55,0,1.05-.08,1.5-.24s.95-.39,1.48-.68l.92,1.55c-.5.38-1.12.69-1.84.94-.72.25-1.47.38-2.24.38-1.11,0-2.06-.23-2.87-.68-.8-.45-1.42-1.08-1.84-1.87s-.63-1.7-.63-2.72v-1.15c0-1.01.2-1.91.61-2.72.41-.8.99-1.44,1.74-1.9s1.64-.69,2.65-.69c1.54,0,2.73.47,3.57,1.4s1.26,2.28,1.26,4.04c0,.39-.03.81-.08,1.26Zm-2.25-1.81c0-.97-.21-1.7-.63-2.22-.42-.51-1.04-.77-1.85-.77s-1.4.26-1.82.78-.63,1.29-.66,2.31h4.96v-.11Z"/>
      <path class="cls-7" d="m727.21,261.36l-.46,2.42c-.21-.04-.43-.06-.67-.06-.67,0-1.26.17-1.75.5s-.89.9-1.19,1.68v6.68h-2.6v-11.17h1.89l.42,1.76c.31-.69.73-1.19,1.27-1.52.54-.33,1.12-.49,1.75-.49.48,0,.92.07,1.34.21Z"/>
      <path class="cls-7" d="m730.12,272.45c-.78-.27-1.46-.64-2.04-1.13l1.24-1.49c.49.36.99.64,1.49.82.5.18,1.06.27,1.66.27,1.41,0,2.12-.41,2.12-1.22v-.17c0-.36-.13-.65-.38-.87-.25-.22-.75-.45-1.49-.7l-1.41-.48c-.91-.32-1.59-.71-2.03-1.17-.44-.45-.66-1.03-.66-1.71v-.46c0-.59.18-1.11.55-1.56s.87-.81,1.51-1.07c.64-.26,1.37-.39,2.18-.39s1.56.12,2.3.37c.73.25,1.37.59,1.9,1.04l-1.2,1.43c-.53-.35-1.02-.59-1.46-.71-.44-.13-.93-.19-1.46-.19-.56,0-.99.1-1.28.3-.29.2-.44.46-.44.77v.17c0,.31.13.57.38.78s.73.44,1.43.69l1.41.48c.9.32,1.58.71,2.04,1.15.46.45.69,1.06.69,1.85v.46c0,.99-.43,1.77-1.28,2.32-.85.55-1.92.83-3.19.83-.94,0-1.8-.13-2.58-.4Z"/>
      <path class="cls-7" d="m632.05,297.37c-.87-.45-1.53-1.1-1.98-1.93s-.68-1.8-.68-2.91v-3.86c0-1.19.24-2.23.71-3.11.48-.88,1.16-1.56,2.04-2.04s1.93-.71,3.15-.71c.97,0,1.8.14,2.5.41s1.37.67,2.02,1.19l-1.34,1.51c-.48-.35-.96-.62-1.44-.8-.48-.18-1.03-.27-1.65-.27-1.06,0-1.89.32-2.47.96-.58.64-.87,1.54-.87,2.72v3.97c0,1.16.27,2.04.81,2.64.54.6,1.34.89,2.4.89.66,0,1.25-.09,1.79-.28.53-.19,1.04-.45,1.53-.79l1.11,1.58c-.56.43-1.22.8-2,1.09-.77.29-1.6.44-2.5.44-1.22,0-2.26-.23-3.13-.68Z"/>
      <path class="cls-7" d="m648.15,286.98c.8.45,1.4,1.07,1.81,1.87.41.8.61,1.71.61,2.75v1.13c0,1.61-.46,2.9-1.39,3.86-.92.97-2.23,1.45-3.91,1.45s-2.95-.48-3.86-1.45c-.91-.97-1.36-2.25-1.36-3.86v-1.13c0-1.04.2-1.95.6-2.75.4-.8.99-1.42,1.77-1.87.78-.45,1.74-.67,2.86-.67s2.08.22,2.88.67Zm-4.83,2.13c-.45.55-.67,1.37-.67,2.45v1.18c0,1.11.22,1.94.66,2.51.44.57,1.09.85,1.96.85s1.53-.28,2-.85c.46-.57.69-1.4.69-2.51v-1.18c0-1.06-.23-1.88-.69-2.44s-1.13-.84-2-.84-1.5.28-1.95.83Z"/>
      <path class="cls-7" d="m660.35,287.3c.68.66,1.02,1.58,1.02,2.75v7.73h-2.6v-7.52c0-1.32-.58-1.97-1.74-1.97-.95,0-1.76.46-2.42,1.39v8.11h-2.6v-11.17h2.23l.17,1.13c.8-.95,1.9-1.43,3.32-1.43,1.08,0,1.96.33,2.64.99Z"/>
      <path class="cls-7" d="m664.37,297.65c-.78-.27-1.46-.64-2.04-1.13l1.24-1.49c.49.36.99.64,1.49.82.5.18,1.06.27,1.66.27,1.41,0,2.12-.41,2.12-1.22v-.17c0-.36-.13-.65-.38-.87-.25-.22-.75-.45-1.49-.7l-1.41-.48c-.91-.32-1.59-.71-2.03-1.17-.44-.45-.66-1.03-.66-1.71v-.46c0-.59.18-1.11.55-1.56s.87-.81,1.51-1.07c.64-.26,1.37-.39,2.18-.39s1.56.12,2.3.37c.73.25,1.37.59,1.9,1.04l-1.2,1.43c-.53-.35-1.02-.59-1.46-.71-.44-.13-.93-.19-1.46-.19-.56,0-.99.1-1.28.3-.29.2-.44.46-.44.77v.17c0,.31.13.57.38.78s.73.44,1.43.69l1.41.48c.9.32,1.58.71,2.04,1.15.46.45.69,1.06.69,1.85v.46c0,.99-.43,1.77-1.28,2.32-.85.55-1.92.83-3.19.83-.94,0-1.8-.13-2.58-.4Z"/>
      <path class="cls-7" d="m681.88,286.61v11.17h-2.21l-.19-1.24c-.92,1.01-2.04,1.51-3.36,1.51-.66,0-1.26-.14-1.79-.42s-.97-.68-1.28-1.19c-.31-.51-.47-1.11-.47-1.8v-8.04h2.6v7.92c0,.5.13.89.4,1.17.27.27.66.41,1.18.41.46,0,.92-.13,1.36-.38s.83-.6,1.16-1.05v-8.06h2.6Z"/>
      <path class="cls-7" d="m686.43,295.17c0,.31.06.53.17.66.11.13.31.2.59.2.07,0,.22-.01.44-.04l.27,1.79c-.52.18-1.02.27-1.49.27-.8,0-1.43-.21-1.89-.64-.46-.43-.69-1.05-.69-1.86v-13.31h2.6v12.94Z"/>
      <path class="cls-7" d="m694.78,297.78c-.63.18-1.28.27-1.95.27-1.09,0-1.93-.25-2.51-.75-.58-.5-.87-1.26-.87-2.3v-6.47h-1.7v-1.93h1.76l.21-2.75h2.33v2.75h2.42v1.93h-2.42v6.32c0,.41.11.71.34.9.22.2.57.29,1.03.29.35,0,.71-.03,1.09-.1l.27,1.83Z"/>
      <path class="cls-7" d="m703.45,287.35c.73.69,1.09,1.66,1.09,2.89v7.54h-2.04l-.21-1.07c-.91.9-2.02,1.34-3.32,1.34-.67,0-1.29-.13-1.86-.39-.57-.26-1.02-.63-1.35-1.11s-.5-1.04-.5-1.67v-.73c0-.98.41-1.76,1.24-2.35.83-.59,1.96-.88,3.4-.88h2.06v-.76c0-.66-.17-1.14-.49-1.44-.33-.3-.83-.45-1.5-.45-.59,0-1.14.07-1.65.21-.51.14-1.05.35-1.61.63l-.8-1.62c1.29-.78,2.72-1.18,4.28-1.18,1.44,0,2.53.35,3.25,1.04Zm-2.62,8.49c.43-.18.8-.45,1.12-.82v-2.48h-1.81c-1.54,0-2.31.57-2.31,1.7v.42c0,.45.14.8.41,1.06.27.26.68.39,1.23.39.48,0,.93-.09,1.35-.27Z"/>
      <path class="cls-7" d="m714.82,287.3c.68.66,1.02,1.58,1.02,2.75v7.73h-2.6v-7.52c0-1.32-.58-1.97-1.74-1.97-.95,0-1.76.46-2.42,1.39v8.11h-2.6v-11.17h2.23l.17,1.13c.8-.95,1.9-1.43,3.32-1.43,1.08,0,1.96.33,2.64.99Z"/>
      <path class="cls-7" d="m718.52,296.58c-.9-.98-1.35-2.29-1.35-3.93v-.94c0-1.65.45-2.96,1.34-3.94.9-.97,2.16-1.46,3.78-1.46.74,0,1.41.12,2.02.36.6.24,1.16.61,1.68,1.11l-1.24,1.39c-.35-.31-.71-.53-1.07-.67-.36-.14-.79-.21-1.28-.21-.84,0-1.49.28-1.94.85s-.68,1.41-.68,2.53v1.03c0,1.12.22,1.97.66,2.54.44.57,1.09.86,1.94.86.46,0,.88-.08,1.26-.23.38-.15.78-.38,1.2-.67l1.07,1.53c-.48.39-1.04.71-1.69.96-.65.25-1.31.37-1.96.37-1.58,0-2.83-.49-3.73-1.47Z"/>
      <path class="cls-7" d="m727.96,302.18c-.3-.05-.55-.12-.75-.2l.36-1.7c.42.08.81.13,1.18.13.5,0,.91-.11,1.21-.33.3-.22.51-.58.64-1.08l.36-1.22h-1.13l-3.59-11.17h2.69l2.65,9.24,2.42-9.24h2.58l-3.8,12.54c-.34,1.13-.82,1.93-1.45,2.4-.63.47-1.44.7-2.44.7-.31,0-.61-.03-.91-.07Z"/>
    </g>
    <rect class="cls-1" x="369.96" y="244.2" width="23.04" height="25.08"/>
  </g>
  <g id="Layer_7" data-name="Layer 7">
    <rect class="cls-5" x="111.44" y="282.81" width="48.14" height="1" transform="translate(-178.54 283.98) rotate(-64.56)"/>
    <rect class="cls-5" x="124.94" y="302.31" width="22.41" height="1" transform="translate(-57.57 33.17) rotate(-11.49)"/>
    <rect class="cls-5" x="151.12" y="298.39" width="6.52" height="1" transform="translate(-62.94 42.1) rotate(-12.92)"/>
    <rect class="cls-5" x="135.4" y="296.55" width="1" height="22.6" transform="translate(-191.94 383.73) rotate(-79.21)"/>
    <rect class="cls-5" x="167.92" y="297" width="1" height="35.29" transform="translate(-175.4 410.36) rotate(-77.4)"/>
    <g>
      <line class="cls-1" x1="124.8" y1="305.33" x2="147.12" y2="287.17"/>
      <rect class="cls-1" x="121.57" y="295.75" width="28.78" height="1" transform="translate(-156.47 152.26) rotate(-39.13)"/>
    </g>
    <g>
      <circle class="cls-1" cx="146.6" cy="259.2" r="2.36"/>
      <path class="cls-5" d="m146.6,262.06c-1.58,0-2.86-1.28-2.86-2.86s1.28-2.86,2.86-2.86,2.86,1.28,2.86,2.86-1.28,2.86-2.86,2.86Zm0-4.72c-1.03,0-1.86.83-1.86,1.86s.83,1.86,1.86,1.86,1.86-.83,1.86-1.86-.83-1.86-1.86-1.86Z"/>
    </g>
    <g>
      <circle class="cls-1" cx="186.67" cy="318.83" r="3.17"/>
      <path class="cls-5" d="m186.67,322.5c-2.03,0-3.67-1.65-3.67-3.67s1.65-3.67,3.67-3.67,3.67,1.65,3.67,3.67-1.65,3.67-3.67,3.67Zm0-6.35c-1.48,0-2.67,1.2-2.67,2.67s1.2,2.67,2.67,2.67,2.67-1.2,2.67-2.67-1.2-2.67-2.67-2.67Z"/>
    </g>
  </g>
  <g id="Layer_11" data-name="Layer 11">
    <g class="cls-2">
      <polygon class="cls-6" points="375.12 253.89 375.12 262.35 378.51 264.42 378.51 255.78 381.21 253.89 378.17 251.82 375.12 253.89"/>
    </g>
    <g class="cls-2">
      <polygon class="cls-6" points="379.59 251.04 382.52 249.25 390.08 253.89 390.08 257.49 386.52 259.52 386.52 255.24 379.59 251.04"/>
    </g>
    <g class="cls-2">
      <polyline class="cls-6" points="379.59 260.64 379.59 264.96 382.52 266.92 389.92 262.53 389.92 258.12 383.55 261.9"/>
    </g>
  </g>
</svg>